name rise34.3697peak60.0498fall86.3158.mot
datacolumns 19
datarows 27
range 6.248312 6.291643
endheader
time	ground_force1_vx	ground_force1_vy	ground_force1_vz	ground_force1_px	ground_force1_py	ground_force1_pz	ground_force2_vx	ground_force2_vy	ground_force2_vz	ground_force2_px	ground_force2_py	ground_force2_pz	ground_torque1_x	ground_torque1_y	ground_torque1_z	ground_torque2_x	ground_torque2_y	ground_torque2_z	
6.248312	0.000000	0.000000	0.000000	0.000000	0.000000	0.000000	65.047469	769.999243	-49.024294	0.448030	0.000000	-0.086948	0.000000	0.000000	0.000000	0.000000	-29.280257	0.000000	
6.249978	0.000000	0.000000	0.000000	0.000000	0.000000	0.000000	64.560425	772.599028	-49.151347	0.446803	0.000000	-0.087005	0.000000	0.000000	0.000000	0.000000	-29.357752	0.000000	
6.251641	0.000000	0.000000	0.000000	0.000000	0.000000	0.000000	64.076986	775.069782	-49.276830	0.445599	0.000000	-0.087063	0.000000	0.000000	0.000000	0.000000	-29.434627	0.000000	
6.253309	0.000000	0.000000	0.000000	0.000000	0.000000	0.000000	63.597342	777.409626	-49.400465	0.444418	0.000000	-0.087120	0.000000	0.000000	0.000000	0.000000	-29.510657	0.000000	
6.254984	0.000000	0.000000	0.000000	0.000000	0.000000	0.000000	63.121622	779.616835	-49.521949	0.443260	0.000000	-0.087178	0.000000	0.000000	0.000000	0.000000	-29.585598	0.000000	
6.256639	0.000000	0.000000	0.000000	0.000000	0.000000	0.000000	62.649904	781.689857	-49.640953	0.442126	0.000000	-0.087235	0.000000	0.000000	0.000000	0.000000	-29.659193	0.000000	
6.258311	0.000000	0.000000	0.000000	0.000000	0.000000	0.000000	62.182212	783.627316	-49.757131	0.441015	0.000000	-0.087292	0.000000	0.000000	0.000000	0.000000	-29.731173	0.000000	
6.259976	0.000000	0.000000	0.000000	0.000000	0.000000	0.000000	61.718522	785.428027	-49.870121	0.439929	0.000000	-0.087348	0.000000	0.000000	0.000000	0.000000	-29.801260	0.000000	
6.261640	0.000000	0.000000	0.000000	0.000000	0.000000	0.000000	61.258762	787.091004	-49.979548	0.438866	0.000000	-0.087404	0.000000	0.000000	0.000000	0.000000	-29.869168	0.000000	
6.263314	0.000000	0.000000	0.000000	0.000000	0.000000	0.000000	60.802818	788.615468	-50.085026	0.437827	0.000000	-0.087460	0.000000	0.000000	0.000000	0.000000	-29.934610	0.000000	
6.264987	0.000000	0.000000	0.000000	0.000000	0.000000	0.000000	60.350535	790.000854	-50.186166	0.436812	0.000000	-0.087515	0.000000	0.000000	0.000000	0.000000	-29.997295	0.000000	
6.266644	0.000000	0.000000	0.000000	0.000000	0.000000	0.000000	59.901722	791.246819	-50.282575	0.435820	0.000000	-0.087569	0.000000	0.000000	0.000000	0.000000	-30.056935	0.000000	
6.268311	0.000000	0.000000	0.000000	0.000000	0.000000	0.000000	59.456152	792.353249	-50.373862	0.434852	0.000000	-0.087623	0.000000	0.000000	0.000000	0.000000	-30.113244	0.000000	
6.269977	0.000000	0.000000	0.000000	0.000000	0.000000	0.000000	59.013569	793.320261	-50.459641	0.433906	0.000000	-0.087676	0.000000	0.000000	0.000000	0.000000	-30.165945	0.000000	
6.271641	0.000000	0.000000	0.000000	0.000000	0.000000	0.000000	58.573688	794.148209	-50.539531	0.432983	0.000000	-0.087729	0.000000	0.000000	0.000000	0.000000	-30.214765	0.000000	
6.273311	0.000000	0.000000	0.000000	0.000000	0.000000	0.000000	58.136202	794.837686	-50.613164	0.432082	0.000000	-0.087780	0.000000	0.000000	0.000000	0.000000	-30.259445	0.000000	
6.274972	0.000000	0.000000	0.000000	0.000000	0.000000	0.000000	57.700781	795.389529	-50.680186	0.431202	0.000000	-0.087831	0.000000	0.000000	0.000000	0.000000	-30.299736	0.000000	
6.276639	0.000000	0.000000	0.000000	0.000000	0.000000	0.000000	57.267078	795.804816	-50.740258	0.430343	0.000000	-0.087881	0.000000	0.000000	0.000000	0.000000	-30.335405	0.000000	
6.278308	0.000000	0.000000	0.000000	0.000000	0.000000	0.000000	56.834735	796.084868	-50.793062	0.429504	0.000000	-0.087930	0.000000	0.000000	0.000000	0.000000	-30.366232	0.000000	
6.279977	0.000000	0.000000	0.000000	0.000000	0.000000	0.000000	56.403379	796.231248	-50.838301	0.428684	0.000000	-0.087979	0.000000	0.000000	0.000000	0.000000	-30.392018	0.000000	
6.281647	0.000000	0.000000	0.000000	0.000000	0.000000	0.000000	55.972633	796.245760	-50.875703	0.427883	0.000000	-0.088026	0.000000	0.000000	0.000000	0.000000	-30.412581	0.000000	
6.283311	0.000000	0.000000	0.000000	0.000000	0.000000	0.000000	55.542112	796.130446	-50.905022	0.427099	0.000000	-0.088073	0.000000	0.000000	0.000000	0.000000	-30.427758	0.000000	
6.284979	0.000000	0.000000	0.000000	0.000000	0.000000	0.000000	55.111434	795.887578	-50.926039	0.426332	0.000000	-0.088118	0.000000	0.000000	0.000000	0.000000	-30.437410	0.000000	
6.286647	0.000000	0.000000	0.000000	0.000000	0.000000	0.000000	54.680215	795.519662	-50.938567	0.425581	0.000000	-0.088163	0.000000	0.000000	0.000000	0.000000	-30.441417	0.000000	
6.288312	0.000000	0.000000	0.000000	0.000000	0.000000	0.000000	54.248080	795.029424	-50.942449	0.424844	0.000000	-0.088206	0.000000	0.000000	0.000000	0.000000	-30.439683	0.000000	
6.289976	0.000000	0.000000	0.000000	0.000000	0.000000	0.000000	53.814658	794.419806	-50.937563	0.424120	0.000000	-0.088249	0.000000	0.000000	0.000000	0.000000	-30.432137	0.000000	
6.291643	0.000000	0.000000	0.000000	0.000000	0.000000	0.000000	53.379590	793.693962	-50.923818	0.423409	0.000000	-0.088291	0.000000	0.000000	0.000000	0.000000	-30.418728	0.000000	
